<svg xmlns="http://www.w3.org/2000/svg" viewBox="-558.6 -188.445 133.2 68.932">
	<g id="logo-mapee" transform="translate(-558.6 -188.445)">
		<path fill="#57595a" d="M172.227,54.284V53.152c2.442-.262,2.635-.483,2.594-3.477v-12.5h-.166l-7.175,16.888h-.911l-6.623-16.557h-.124l-.483,8.458a33.109,33.109,0,0,0,0,5.229c.124,1.463.786,1.752,2.925,1.945V54.27h-7.8V53.139c1.821-.166,2.442-.745,2.635-1.89a50.887,50.887,0,0,0,.676-6.14l.524-6.4c.262-3.7,0-4.139-2.759-4.415V33.16h6.719l6.264,14.225L174.89,33.16h6.526v1.159c-2.594.262-2.759.524-2.663,3.215l.29,12.142c0,2.994.221,3.215,2.759,3.477v1.131Z" transform="translate(-142.039 -3.275)"/>
		<path fill="#57595a" d="M185.487,54.413V53.282c1.918-.29,2.083-.676,1.559-2.111-.331-.98-.814-2.346-1.3-3.67h-6.236c-.359,1.007-.786,2.18-1.173,3.477-.455,1.559-.386,2.014,1.987,2.3v1.131H173V53.282c2.139-.262,2.539-.621,3.6-3.339l6.664-16.695,1.656-.428C187,38.5,189.06,44.161,191.13,49.749c1.1,2.856,1.531,3.284,3.574,3.546v1.131Zm-2.759-15.66h-.069c-.911,2.373-1.725,4.7-2.566,7.023h5.064Z" transform="translate(-135.002 -3.404)"/>
		<path fill="#57595a" d="M197.814,33.18a9.658,9.658,0,0,1,5.685,1.269,5.519,5.519,0,0,1,2.4,4.774c0,4.346-3.215,6.333-6.623,6.761a10.555,10.555,0,0,1-1.38,0l-2.208-.524v4.457c0,2.759.29,2.994,3.091,3.215v1.1h-10.1v-1.1c2.442-.221,2.759-.455,2.759-3.215V37.5c0-2.759-.29-2.953-2.539-3.215V33.152ZM195.7,44.218a4.967,4.967,0,0,0,1.752.331c1.2,0,3.794-.842,3.794-5.229,0-3.67-2.083-4.87-4.056-4.87a1.89,1.89,0,0,0-1.2.331,1.38,1.38,0,0,0-.29,1.007Z" transform="translate(-129.048 -3.281)"/>
		<path fill="#57595a" d="M218.228,48.87c-.193,1.463-.883,4.415-1.131,5.395H200.54V53.133c2.759-.221,3.091-.428,3.091-3.187V37.529c0-2.759-.331-2.994-2.635-3.187V33.21h15.3c0,.579.193,2.856.331,4.87l-1.173.166a6.788,6.788,0,0,0-1.38-2.759c-.552-.579-1.38-.814-3.242-.814h-1.559c-1.2,0-1.38,0-1.38,1.131v6.9h2.18c2.759,0,3.146-.166,3.6-2.442h1.3v6.457H213.8c-.455-2.346-.842-2.47-3.6-2.47h-2.18v5.616c0,1.532.124,2.346.786,2.663a8.582,8.582,0,0,0,2.925.331,4.719,4.719,0,0,0,3.6-1.035,12.5,12.5,0,0,0,1.821-3.187Z" transform="translate(-124.544 -3.256)"/>
		<path fill="#57595a" d="M230.968,48.87c-.193,1.463-.883,4.415-1.131,5.395H213.28V53.133c2.759-.221,3.091-.428,3.091-3.187V37.529c0-2.759-.331-2.994-2.635-3.187V33.21h15.3c0,.579.193,2.856.331,4.87l-1.173.166a6.788,6.788,0,0,0-1.38-2.759c-.552-.579-1.38-.814-3.242-.814h-1.559c-1.2,0-1.38,0-1.38,1.131v6.9h2.18c2.759,0,3.146-.166,3.6-2.442h1.173v6.457h-1.173c-.455-2.346-.842-2.47-3.6-2.47h-2.18v5.616c0,1.532.124,2.346.786,2.663a8.582,8.582,0,0,0,2.925.331,4.719,4.719,0,0,0,3.725-1.035,12.5,12.5,0,0,0,1.821-3.187Z" transform="translate(-119.706 -3.256)"/>
		<rect fill="#e46030" width="19.316" height="16.557" rx="3.02" transform="translate(113.884 51.575)"/>
		<circle fill="#216540" cx="8.334" cy="8.334" r="8.334" transform="translate(89.435 0)"/>
		<path fill="#ced0d1" d="M256.584,71.815v-1.1l-77.721.635a47.077,47.077,0,0,1-13.342-1.835h0c-9.658-2.759-15.329-9.01-16.391-17.937a27.989,27.989,0,0,1-.3-3.215,21.055,21.055,0,0,1,1.656-8.444v-.138a22.145,22.145,0,0,1,5.822-7.851,29.968,29.968,0,0,1,19.772-6.83l61.012-.276a11.192,11.192,0,0,1-1.78-1.463l-61.122-.5a29.747,29.747,0,0,0-20.7,7.809,25.732,25.732,0,0,0-6.4,9.575v.083l-.248.538h0a27.07,27.07,0,0,0-1.38,8.61,19.387,19.387,0,0,0,.1,2.359v.7a23.773,23.773,0,0,0,10.776,17.426h-.138l.952.579a32.8,32.8,0,0,0,13.259,4.512h.69a46.07,46.07,0,0,0,5.519.345l81.4.717A6.775,6.775,0,0,1,256.584,71.815Z" transform="translate(-145.46 -7.188)"/>
	</g>
</svg>