<?xml version="1.0" encoding="UTF-8"?>
<svg width="512px" height="512px" viewBox="0 0 512 512" version="1.1" xmlns="http://www.w3.org/2000/svg" xmlns:xlink="http://www.w3.org/1999/xlink">
    <!-- Generator: Sketch 47.1 (45422) - http://www.bohemiancoding.com/sketch -->
    <title>mapee-icon</title>
    <desc>Created with Sketch.</desc>
    <defs></defs>
    <g id="Page-1" stroke="none" stroke-width="1" fill="none" fill-rule="evenodd">
        <g id="mapee-icon" fill-rule="nonzero">
            <path d="M370.535249,311.980552 L420.57547,311.980552 C431.620676,311.980552 440.574586,320.934462 440.574586,331.979669 L440.574586,372.006188 C440.574586,383.051395 431.620676,392.005304 420.57547,392.005304 L370.535249,392.005304 C359.490042,392.005304 350.536133,383.051395 350.536133,372.006188 L350.536133,331.979669 C350.536133,320.934462 359.490042,311.980552 370.535249,311.980552 Z" id="Rectangle-path" fill="#E46030"></path>
            <path d="M348.386298,390.619227 L221.659227,386.71558 C212.140022,386.664341 202.63425,385.993456 193.20221,384.707182 C170.068207,382.279068 147.75085,374.794883 127.830276,362.78453 L121.635359,359.248619 L122.399116,359.248619 C93.6790683,339.987005 75.1555505,308.820121 71.9628729,274.38674 C71.5668508,270.00221 71.3688398,265.900552 71.3688398,261.883757 C71.300821,246.730355 73.9548077,231.687903 79.2044199,217.472707 C85.836271,199.60753 96.4818106,183.503732 110.320442,170.402652 C135.948729,146.103867 171.36442,132.695691 209.976575,132.695691 L278.856133,132.695691 C282.505193,135.83558 286.606851,142.483094 291.047956,144.434917 L219.11337,144.434917 C182.33989,144.434917 148.734586,156.032707 124.492376,177.135028 C112.512307,187.394928 102.973808,200.199904 96.5728177,214.615691 C90.9165205,227.537111 88.0258803,241.498904 88.0866298,255.603978 C88.2496603,260.690247 88.7124894,265.762477 89.4727072,270.794254 C94.5927072,314.243536 120.362431,344.737238 166.97989,356.617901 L166.97989,356.617901 C182.509613,362.501657 202.423867,365.104088 230.937459,365.104088 L335.82674,365.104088 L335.82674,370.563536 C335.82674,377.918232 338.796906,381.878453 344.171492,386.743867 L348.386298,390.619227 Z" id="Shape" fill="#CED0D1"></path>
            <circle id="Oval" fill="#216540" cx="321.089061" cy="107.633149" r="40.0265193"></circle>
            <path d="M280.86453,320.636464 L280.86453,313.67779 C295.771934,312.093702 296.988287,310.707624 296.761989,292.405746 L296.365967,215.832044 L295.375912,215.832044 L251.417459,319.250387 L245.76,319.250387 L205.280884,217.812155 L204.48884,217.812155 L202.112707,269.719337 C201.267623,280.376348 201.267623,291.083541 202.112707,301.740552 C202.904751,310.679337 206.89326,312.489724 220.018564,313.67779 L220.018564,320.636464 L172.269613,320.636464 L172.269613,313.67779 C183.414807,312.687735 187.177017,309.095249 188.39337,302.136575 C190.548729,289.701624 191.946809,277.147237 192.57989,264.542762 L195.748066,225.364862 C197.332155,202.735028 195.946077,199.906298 178.775691,198.32221 L178.775691,191.363536 L219.990276,191.363536 L258.376133,278.488398 L297.356022,191.363536 L337.325967,191.363536 L337.325967,198.32221 C321.428508,199.906298 320.608177,201.518674 321.004199,218.123315 L322.786298,292.518895 C323.18232,310.820773 324.172376,312.32 339.758674,313.790939 L339.758674,320.749613 L280.86453,320.636464 Z" id="Shape" fill="#57595A"></path>
        </g>
    </g>
</svg>