<svg version="1" xmlns="http://www.w3.org/2000/svg" width="933.333" height="933.333" viewBox="0 0 700.000000 700.000000"><path d="M460.2 12.1C431.7 17 408 38.6 400.3 67c-2.2 8.1-2.5 29.1-.5 36.5 5 18.3 16.1 34.5 30.5 44.4 19 13 44.3 16.7 65.6 9.5 5.3-1.8 11.5-4.3 13.8-5.6 35.4-20.2 48.8-65.6 29.6-100.7-3.8-7.1-10.8-16.5-14.4-19.6-12.8-10.8-22.7-15.9-37-19-6.8-1.5-20.4-1.7-27.7-.4zM258.7 132.6c-.1.1-5.8.4-12.7.8-6.9.3-13.6.8-15 1-1.4.3-4.7.7-7.5 1.1-21.8 2.6-51.9 11-73.7 20.6-32.5 14.3-63 36.2-85 61.3-18.9 21.4-30.6 40.4-43.3 70.1-2.6 6.2-9.7 30.3-9.6 33 0 .2-.5 1.9-1 3.7-1.1 3.9-1.8 7.8-3.4 19.8-1.8 12.8-2.3 37.9-1.1 51.5 3.8 42 19.2 81.4 44.8 114.7 9.6 12.3 24.8 27.4 38.2 37.8 10.9 8.6 20.6 15.4 20.6 14.5 0-.2 1.7.7 3.8 2.1 6 4.1 34.8 17.9 45.7 21.9 18.8 7 41.7 13.1 55.5 15 2.5.3 5.2.8 6 1 .8.2 4 .7 7 1 3 .3 6.6.8 8 1 1.4.2 5.7.6 9.5 1 3.9.3 8.8.8 11 1 5.4.6 32.7 1.6 113 4 9.4.3 24 .7 32.5 1 8.5.3 23.6.7 33.5 1 9.9.3 23.9.7 31 1 7.2.2 22.5.7 34 1.1 11.6.3 21.3.8 21.8 1.1 2.5 1.5-.4-1.9-7.6-9-11.9-11.7-14.4-17.3-14.6-33.2l-.1-6-108.2-.1c-107.5 0-129.3-.5-149-2.8-2.7-.3-6.9-.8-9.5-1.1-6.1-.7-27.3-5.1-33.8-7-47.2-13.6-69.8-23.7-93.9-42-9-6.8-22.6-20.2-28.9-28.5-2.3-3-4.5-5.7-4.9-5.8-.5-.2-.8-.7-.8-1.2 0-.4-1.8-3.4-3.9-6.6-9.5-14.2-20.5-41.2-23.7-57.8-.2-1.2-.6-3.2-.9-4.6-.4-2.2-2.1-12-4.1-24.5-1.4-8.8-1.3-40 .2-49.5 8.7-57.4 39.3-104.3 89.4-137.5 25.6-17 50.7-27.8 82-35.4 32.1-7.8 42.1-8.4 133.7-8.5h71.2l-5.2-5.1c-2.9-2.8-7.6-7.7-10.5-11l-5.3-5.9h-67.5c-37.2-.1-67.6 0-67.7 0z"/><path d="M206.3 248.5c0 4.2.3 6.5 1.1 6.6 2.7.2 12.2 1.7 14.6 2.4.3.1 1.9.5 3.7.9 4.1 1 9.8 6.6 11.5 11.3 1.9 5.4 1.4 43.2-.7 54.3-.2.8-.6 6.2-.9 12-.4 5.8-.9 11.8-1.1 13.5-.2 1.6-.7 6.8-1 11.5-.4 4.7-.8 10.1-1 12-.2 1.9-.6 8.4-.9 14.5-.4 6-.8 12.6-1.1 14.5-.2 1.9-.7 6.2-1.1 9.5-.3 3.3-.8 7.1-.9 8.5-.2 1.4-.6 4.7-.9 7.3-1.7 14.8-4.8 28.1-7.4 32.1-4.2 6.2-8.4 8.2-24 11.2-2 .4-2.2.9-2.1 6.8l.2 6.3h44.3c24.4.1 44.4-.2 44.5-.5 0-.4.2-3.3.3-6.4.2-6.4.6-6.2-9.9-7.4-8.7-.9-16.1-4-18.9-7.7-4.4-5.8-5.1-11.1-5.1-40.7 0-24.6.3-35.4 2-67.5.8-14.3 1.4-26.8 2.1-44 .3-8.8.9-16.6 1.3-17.3.4-.7 9.8 21.7 21.5 51 11.4 28.8 21.4 53.6 22.1 55.3.7 1.6 3 7.3 5 12.5s4.2 10.8 4.9 12.5c.8 1.6 6.2 15.2 12.1 30.2l10.8 27.1 3.8.4c6.1.6 7.3-.4 10.6-8.4 3.2-7.8 33.3-78.5 36.2-85.3 1-2.2 10.7-25 21.5-50.6 10.9-25.6 20.1-47.2 20.6-47.9.5-.8 1.2-1.2 1.5-.8 1.2 1.1 1.5 158.8.4 164.8-2 10.3-6.1 14-17.4 16-3.8.6-8 1.4-9.2 1.6-2.1.4-2.3 1-2.3 6.8v6.4l55 .1 55 .2.1-3.8c.1-4.3-.2-8.6-.6-9.1-.2-.2-2-.5-4.1-.8-3.5-.3-9-1.3-11.9-2-6.2-1.4-10.8-5.8-12.4-11.7-2.2-8-2.1-6.5-3.6-65.7-.2-10.2-.8-31.6-1.2-47.5-.4-16-.7-38.9-.7-51-.1-26.7.5-29 8.8-32.9 2.8-1.4 7.4-2.8 10.1-3.2 2.8-.4 5.5-.9 6-.9.6-.1 2-.3 3.2-.3 2-.2 2.2-.7 2.1-6.7l-.1-6.5h-74.6l-2.7 5.7c-1.4 3.2-4.4 9.8-6.6 14.8-2.2 4.9-5.1 11.5-6.5 14.5-1.4 3-4 8.9-5.8 13-3 6.8-18.3 41.1-23.3 52-1.1 2.5-5 11.2-8.7 19.5-3.7 8.2-7.5 16.8-8.5 19-1 2.2-3.7 8.3-6 13.5-2.3 5.2-4.4 9.7-4.6 9.9-.4.5-3.5-6.1-13.9-29.9-4.2-9.6-8.2-18.9-9-20.5-.7-1.7-7.5-17-15-34-7.5-17.1-18.2-41.1-23.6-53.4-5.4-12.3-9.9-22.8-9.9-23.2 0-.5-17.5-.9-38.8-.9h-38.8l-.1 6.5zM560 468.2c-15.4 2.2-29.1 15.3-31.6 30.3-.8 4.8-.9 83.8-.1 87.8C531 600 539 609.8 552 615.5c4.2 1.8 7.5 1.9 57 2.3 38.2.3 54 0 58-.8 13.9-3.1 23.9-12.2 28.4-25.8 1.6-4.7 1.8-9.9 1.7-48 0-23.5-.2-43.4-.4-44.2-1.5-6.1-2.3-8.1-4.9-12.7-4.7-8.4-13.4-15-22.8-17.3-4.2-1.1-16.9-1.4-54.5-1.5-26.9 0-51.5.3-54.5.7z"/></svg>